# generated from PmQm by Jehee Lee
:FULLY-SPECIFIED
:DEGREES
355
root 9.90457 3.78014 4.17559 -116.129 85.2163 -35.5801
RightUpLeg -5.92535 -3.40988 -2.36555
RightLeg -6.65917 -35.0349 7.30794
RightFoot 16.1617 -5.32148 20.2018
RightToes 4.07452e-010 -1.59028e-015 9.93923e-017
Spine -31.1683 -0.775229 2.81137
Spine1 28.2246 -1.27663 -1.85474
HEad -48.0191 19.9396 7.63179
LeftShoulder1 9.93923e-017 -0 1.22299e-017
LeftArm 6.69035 41.4962 -59.7184
LeftForeArm 9.51003 -3.36487 -5.95416
LeftHand 1.51838 12.2673 -4.71906
RightShoulder 1.98785e-016 -4.96962e-017 1.55301e-017
RightArm 8.27228 -50.5419 57.5198
RightForeArm -17.5963 12.1886 1.42764
RightHand 3.36284 -21.7471 -9.48328
LeftUpLeg -12.5787 3.71239 8.36943
LeftLeg 1.88098 24.8014 2.34348
LeftFoot 12.4565 4.81448 -20.5809
LeftToes 1.53707e-010 -1.11459e-010 1.58109e-011
356
root 9.90479 3.77778 4.16905 -115.973 85.2674 -35.3491
RightUpLeg -5.86598 -3.5059 -2.44452
RightLeg -6.59547 -34.982 7.3138
RightFoot 16.1802 -5.3231 20.1947
RightToes 4.07452e-010 -1.59028e-015 9.93923e-017
Spine -30.9946 -0.760613 2.84793
Spine1 28.1012 -1.25502 -1.88637
HEad -48.1125 20.0356 7.64106
LeftShoulder1 9.93923e-017 -0 1.22299e-017
LeftArm 6.76274 41.539 -59.7184
LeftForeArm 9.42421 -3.37864 -5.96968
LeftHand 1.51882 12.2574 -4.72794
RightShoulder 1.98785e-016 -4.96962e-017 1.55301e-017
RightArm 8.27625 -50.5366 57.489
RightForeArm -17.5348 12.18 1.42836
RightHand 3.35827 -21.7382 -9.45125
LeftUpLeg -12.4613 3.67234 8.33609
LeftLeg 1.83403 24.926 2.34356
LeftFoot 12.4794 4.82526 -20.6076
LeftToes 1.53707e-010 -1.11459e-010 1.58109e-011
357
root 9.90624 3.77557 4.17228 -115.968 85.2734 -35.3029
RightUpLeg -5.81053 -3.50008 -2.44813
RightLeg -6.63291 -35.0911 7.32838
RightFoot 16.239 -5.33294 20.1897
RightToes 4.07452e-010 -1.59028e-015 9.93923e-017
Spine -30.9292 -0.784033 2.76828
Spine1 28.0897 -1.29562 -1.79579
HEad -48.2159 20.1356 7.67098
LeftShoulder1 9.93923e-017 -0 1.22299e-017
LeftArm 6.77042 41.5399 -59.7438
LeftForeArm 9.36347 -3.38631 -5.97675
LeftHand 1.51962 12.2448 -4.69833
RightShoulder 1.98785e-016 -4.96962e-017 1.55301e-017
RightArm 8.13562 -50.4937 57.4689
RightForeArm -17.3102 12.1036 1.49461
RightHand 3.36532 -21.683 -9.53641
LeftUpLeg -12.4273 3.69292 8.35356
LeftLeg 1.86578 24.9774 2.35766
LeftFoot 12.4628 4.83723 -20.6718
LeftToes 1.53707e-010 -1.11459e-010 1.58109e-011
358
root 9.90927 3.77945 4.18089 -116.446 85.2314 -35.7166
RightUpLeg -5.69183 -3.47144 -2.42496
RightLeg -6.71196 -35.2959 7.3707
RightFoot 16.2846 -5.35774 20.2496
RightToes 4.07452e-010 -1.59028e-015 9.93923e-017
Spine -30.9559 -0.850108 2.6079
Spine1 28.2353 -1.39109 -1.63877
HEad -48.3654 20.2611 7.6901
LeftShoulder1 9.93923e-017 -0 1.22299e-017
LeftArm 6.69557 41.4925 -59.8013
LeftForeArm 9.32518 -3.38552 -5.97353
LeftHand 1.51982 12.2513 -4.66677
RightShoulder 1.98785e-016 -4.96962e-017 1.55301e-017
RightArm 7.94941 -50.4133 57.4823
RightForeArm -17.1569 12.0274 1.56315
RightHand 3.37222 -21.6631 -9.642
LeftUpLeg -12.4132 3.76102 8.40746
LeftLeg 1.98224 24.9302 2.39908
LeftFoot 12.3966 4.84985 -20.7797
LeftToes 1.53707e-010 -1.11459e-010 1.58109e-011
359
root 9.91242 3.7774 4.17947 -116.294 85.2283 -35.4962
RightUpLeg -5.61215 -3.47499 -2.4313
RightLeg -6.72163 -35.4149 7.38288
RightFoot 16.3053 -5.3911 20.3586
RightToes 4.07452e-010 -1.59028e-015 9.93923e-017
Spine -30.9251 -0.852439 2.62229
Spine1 28.3274 -1.39409 -1.66604
HEad -48.5421 20.3979 7.70059
LeftShoulder1 9.93923e-017 -0 1.22299e-017
LeftArm 6.6148 41.4458 -59.85
LeftForeArm 9.28399 -3.38253 -5.96915
LeftHand 1.51928 12.2736 -4.67424
RightShoulder 1.98785e-016 -4.96962e-017 1.55301e-017
RightArm 7.8503 -50.3336 57.5216
RightForeArm -17.1755 12.005 1.58352
RightHand 3.37275 -21.6894 -9.66427
LeftUpLeg -12.3904 3.8045 8.4434
LeftLeg 2.11388 24.9781 2.46268
LeftFoot 12.33 4.85886 -20.8718
LeftToes 1.53707e-010 -1.11459e-010 1.58109e-011
360
root 9.91413 3.76739 4.16541 -115.441 85.2893 -34.5739
RightUpLeg -5.587 -3.53513 -2.49127
RightLeg -6.64891 -35.4069 7.35716
RightFoot 16.3086 -5.41293 20.4369
RightToes 4.07452e-010 -1.59028e-015 9.93923e-017
Spine -30.7759 -0.775106 2.83183
Spine1 28.2755 -1.28284 -1.88979
HEad -48.7145 20.5137 7.73287
LeftShoulder1 9.93923e-017 -0 1.22299e-017
LeftArm 6.56627 41.4218 -59.8681
LeftForeArm 9.27322 -3.37802 -5.96587
LeftHand 1.51866 12.2932 -4.72279
RightShoulder 1.98785e-016 -4.96962e-017 1.55301e-017
RightArm 7.84047 -50.2813 57.5541
RightForeArm -17.2353 12.0117 1.5782
RightHand 3.37177 -21.7041 -9.6397
LeftUpLeg -12.3187 3.79512 8.44104
LeftLeg 2.17743 25.1976 2.5081
LeftFoot 12.3185 4.86262 -20.8916
LeftToes 1.53707e-010 -1.11459e-010 1.58109e-011
361
root 9.9155 3.76856 4.16042 -115.634 85.2835 -34.6614
RightUpLeg -5.45772 -3.59089 -2.52904
RightLeg -6.63983 -35.5173 7.37629
RightFoot 16.3047 -5.41543 20.449
RightToes 4.07452e-010 -1.59028e-015 9.93923e-017
Spine -30.6511 -0.778973 2.87221
Spine1 28.2754 -1.28187 -1.93157
HEad -48.8886 20.6164 7.77472
LeftShoulder1 9.93923e-017 -0 1.22299e-017
LeftArm 6.51401 41.4036 -59.8798
LeftForeArm 9.31771 -3.36784 -5.96029
LeftHand 1.51848 12.3005 -4.77071
RightShoulder 1.98785e-016 -4.96962e-017 1.55301e-017
RightArm 7.8119 -50.2475 57.5611
RightForeArm -17.2118 12.0031 1.58294
RightHand 3.37123 -21.698 -9.60182
LeftUpLeg -12.1992 3.82417 8.47329
LeftLeg 2.19976 25.3196 2.51172
LeftFoot 12.3456 4.86321 -20.8743
LeftToes 1.53707e-010 -1.11459e-010 1.58109e-011
362
root 9.91905 3.78526 4.1818 -117.157 85.1064 -36.0982
RightUpLeg -5.22022 -3.47159 -2.39485
RightLeg -6.84642 -36.0066 7.46395
RightFoot 16.3486 -5.41425 20.4134
RightToes 4.07452e-010 -1.59028e-015 9.93923e-017
Spine -30.707 -0.943576 2.55543
Spine1 28.4537 -1.52534 -1.56338
HEad -49.085 20.7435 7.7735
LeftShoulder1 9.93923e-017 -0 1.22299e-017
LeftArm 6.43991 41.3849 -59.9121
LeftForeArm 9.35639 -3.35712 -5.95424
LeftHand 1.51876 12.3012 -4.78084
RightShoulder 1.98785e-016 -4.96962e-017 1.55301e-017
RightArm 7.69441 -50.2093 57.555
RightForeArm -17.1145 11.9713 1.59936
RightHand 3.36678 -21.7154 -9.52219
LeftUpLeg -12.1806 3.99438 8.63013
LeftLeg 2.31203 25.1265 2.51941
LeftFoot 12.3487 4.86545 -20.8868
LeftToes 1.53707e-010 -1.11459e-010 1.58109e-011
363
root 9.92439 3.79291 4.21477 -117.618 84.8696 -36.6104
RightUpLeg -5.11308 -3.10563 -2.06632
RightLeg -7.22922 -36.7575 7.53535
RightFoot 16.5037 -5.42441 20.3414
RightToes 4.07452e-010 -1.59028e-015 9.93923e-017
Spine -30.888 -1.1028 2.21097
Spine1 28.6317 -1.8056 -1.09582
HEad -49.2891 20.8967 7.72564
LeftShoulder1 9.93923e-017 -0 1.22299e-017
LeftArm 6.37811 41.376 -59.9576
LeftForeArm 9.33837 -3.35324 -5.95303
LeftHand 1.51922 12.3015 -4.76338
RightShoulder 1.98785e-016 -4.96962e-017 1.55301e-017
RightArm 7.55642 -50.163 57.5504
RightForeArm -17.0077 11.9339 1.61903
RightHand 3.36109 -21.7491 -9.45127
LeftUpLeg -12.3886 4.25436 8.87674
LeftLeg 2.54934 24.8497 2.57894
LeftFoot 12.3144 4.86657 -20.918
LeftToes 1.53707e-010 -1.11459e-010 1.58109e-011
364
root 9.92718 3.7791 4.2342 -116.564 84.7402 -35.6997
RightUpLeg -5.19411 -2.72319 -1.75864
RightLeg -7.57358 -37.3915 7.55332
RightFoot 16.7176 -5.43853 20.2435
RightToes 4.07452e-010 -1.59028e-015 9.93923e-017
Spine -31.0029 -1.13064 2.11507
Spine1 28.6389 -1.91371 -0.870813
HEad -49.4645 21.0377 7.68952
LeftShoulder1 9.93923e-017 -0 1.22299e-017
LeftArm 6.34387 41.3703 -59.9913
LeftForeArm 9.31956 -3.35135 -5.95413
LeftHand 1.51976 12.2993 -4.75034
RightShoulder 1.98785e-016 -4.96962e-017 1.55301e-017
RightArm 7.50423 -50.1237 57.548
RightForeArm -16.9343 11.9036 1.6462
RightHand 3.36364 -21.7331 -9.50705
LeftUpLeg -12.6638 4.44293 9.06827
LeftLeg 2.74367 24.7802 2.63465
LeftFoot 12.2952 4.85804 -20.8985
LeftToes 1.53707e-010 -1.11459e-010 1.58109e-011
365
root 9.92632 3.76506 4.23488 -115.741 84.7351 -34.9351
RightUpLeg -5.25315 -2.61521 -1.68259
RightLeg -7.69027 -37.6592 7.56799
RightFoot 16.8517 -5.44098 20.1594
RightToes 4.07452e-010 -1.59028e-015 9.93923e-017
Spine -30.9934 -1.09202 2.17092
Spine1 28.5896 -1.88615 -0.882423
HEad -49.6151 21.148 7.69121
LeftShoulder1 9.93923e-017 -0 1.22299e-017
LeftArm 6.29427 41.3495 -60.006
LeftForeArm 9.37036 -3.34138 -5.94788
LeftHand 1.52029 12.2959 -4.7519
RightShoulder 1.98785e-016 -4.96962e-017 1.55301e-017
RightArm 7.50514 -50.0953 57.5503
RightForeArm -16.893 11.8759 1.68386
RightHand 3.37156 -21.655 -9.66531
LeftUpLeg -12.7396 4.48919 9.1245
LeftLeg 2.76498 24.8807 2.62344
LeftFoot 12.3146 4.84383 -20.8226
LeftToes 1.53707e-010 -1.11459e-010 1.58109e-011
366
root 9.92429 3.76749 4.23004 -116.048 84.7644 -35.1766
RightUpLeg -5.18106 -2.74957 -1.78506
RightLeg -7.61876 -37.6752 7.60607
RightFoot 16.8695 -5.43392 20.1215
RightToes 4.07452e-010 -1.59028e-015 9.93923e-017
Spine -30.9581 -1.09186 2.17506
Spine1 28.6389 -1.86801 -0.92376
HEad -49.7761 21.2351 7.70949
LeftShoulder1 9.93923e-017 -0 1.22299e-017
LeftArm 6.19468 41.3206 -60.016
LeftForeArm 9.46058 -3.31936 -5.93522
LeftHand 1.52061 12.2975 -4.76228
RightShoulder 1.98785e-016 -4.96962e-017 1.55301e-017
RightArm 7.42924 -50.0631 57.5632
RightForeArm -16.833 11.8385 1.72322
RightHand 3.36836 -21.5925 -9.72591
LeftUpLeg -12.6199 4.46652 9.09927
LeftLeg 2.69075 24.9487 2.57394
LeftFoot 12.3428 4.83108 -20.7416
LeftToes 1.53707e-010 -1.11459e-010 1.58109e-011
367
root 9.92305 3.77297 4.22873 -116.56 84.7768 -35.6263
RightUpLeg -5.10407 -2.86045 -1.86774
RightLeg -7.5509 -37.7088 7.63011
RightFoot 16.8681 -5.43383 20.1222
RightToes 4.07452e-010 -1.59028e-015 9.93923e-017
Spine -30.9492 -1.1237 2.10906
Spine1 28.7137 -1.89452 -0.894689
HEad -49.9461 21.2907 7.76226
LeftShoulder1 9.93923e-017 -0 1.22299e-017
LeftArm 6.09061 41.3062 -60.0321
LeftForeArm 9.503 -3.29955 -5.92552
LeftHand 1.52027 12.3177 -4.78065
RightShoulder 1.98785e-016 -4.96962e-017 1.55301e-017
RightArm 7.27556 -50.0222 57.5809
RightForeArm -16.7282 11.7966 1.7499
RightHand 3.3482 -21.6082 -9.5617
LeftUpLeg -12.5245 4.45708 9.07576
LeftLeg 2.6494 24.9444 2.54484
LeftFoot 12.3593 4.82289 -20.6794
LeftToes 1.53707e-010 -1.11459e-010 1.58109e-011
